<?xml version="1.0" encoding="UTF-8" standalone="no"?>
<!-- Created with Inkscape (http://www.inkscape.org/) -->

<svg
   xmlns:osb="http://www.openswatchbook.org/uri/2009/osb"
   xmlns:dc="http://purl.org/dc/elements/1.1/"
   xmlns:cc="http://creativecommons.org/ns#"
   xmlns:rdf="http://www.w3.org/1999/02/22-rdf-syntax-ns#"
   xmlns:svg="http://www.w3.org/2000/svg"
   xmlns="http://www.w3.org/2000/svg"
   xmlns:sodipodi="http://sodipodi.sourceforge.net/DTD/sodipodi-0.dtd"
   xmlns:inkscape="http://www.inkscape.org/namespaces/inkscape"
   width="1053.5703"
   height="442.40704"
   id="svg2"
   version="1.1"
   inkscape:version="0.48.5 r10040"
   sodipodi:docname="cable.svg">
  <defs
     id="defs4">
    <linearGradient
       id="linearGradient5839"
       osb:paint="solid">
      <stop
         style="stop-color:#ffffff;stop-opacity:1;"
         offset="0"
         id="stop5841" />
    </linearGradient>
  </defs>
  <sodipodi:namedview
     id="base"
     pagecolor="#ffffff"
     bordercolor="#666666"
     borderopacity="1.0"
     inkscape:pageopacity="0.0"
     inkscape:pageshadow="2"
     inkscape:zoom="0.98994949"
     inkscape:cx="556.95935"
     inkscape:cy="142.34183"
     inkscape:document-units="px"
     inkscape:current-layer="layer1"
     showgrid="true"
     fit-margin-top="0"
     fit-margin-left="0"
     fit-margin-right="0"
     fit-margin-bottom="0"
     inkscape:window-width="1920"
     inkscape:window-height="1018"
     inkscape:window-x="-8"
     inkscape:window-y="-8"
     inkscape:window-maximized="1">
    <inkscape:grid
       type="xygrid"
       id="grid2985"
       empspacing="5"
       visible="true"
       enabled="true"
       snapvisiblegridlinesonly="true"
       originx="51.664062px"
       originy="-119.625px" />
  </sodipodi:namedview>
  <metadata
     id="metadata7">
    <rdf:RDF>
      <cc:Work
         rdf:about="">
        <dc:format>image/svg+xml</dc:format>
        <dc:type
           rdf:resource="http://purl.org/dc/dcmitype/StillImage" />
        <dc:title></dc:title>
      </cc:Work>
    </rdf:RDF>
  </metadata>
  <g
     inkscape:label="Calque 1"
     inkscape:groupmode="layer"
     id="layer1"
     transform="translate(51.664062,-490.33013)">
    <path
       style="fill:none;stroke:#000000;stroke-width:3;stroke-linecap:butt;stroke-linejoin:miter;stroke-miterlimit:4;stroke-opacity:1;stroke-dasharray:none"
       d="m 60,324.09448 880,0"
       id="path4297"
       inkscape:connector-curvature="0"
       transform="translate(0,308.2677)" />
    <path
       sodipodi:type="arc"
       style="fill:#ffffff;fill-opacity:1;stroke:#000000;stroke-width:3;stroke-miterlimit:4;stroke-opacity:1;stroke-dasharray:none;stroke-dashoffset:0"
       id="path2989"
       sodipodi:cx="325"
       sodipodi:cy="329.09448"
       sodipodi:rx="25"
       sodipodi:ry="25"
       d="m 350,329.09448 c 0,13.80712 -11.19288,25 -25,25 -13.80712,0 -25,-11.19288 -25,-25 0,-13.80712 11.19288,-25 25,-25 13.80712,0 25,11.19288 25,25 z"
       transform="matrix(1.2,0,0,1.2,-270,237.4488)" />
    <path
       style="fill:#ffffff;fill-opacity:1;stroke:#000000;stroke-width:4;stroke-linecap:butt;stroke-linejoin:miter;stroke-miterlimit:4;stroke-opacity:1;stroke-dasharray:none"
       d="m 120,612.36218 0,40"
       id="path3759"
       inkscape:connector-curvature="0" />
    <path
       style="fill:#ffffff;fill-opacity:1;stroke:#000000;stroke-width:4;stroke-linecap:butt;stroke-linejoin:miter;stroke-miterlimit:4;stroke-opacity:1;stroke-dasharray:none"
       d="m 100,632.36218 40,0"
       id="path3761"
       inkscape:connector-curvature="0" />
    <path
       sodipodi:type="arc"
       style="fill:#ffffff;fill-opacity:1;stroke:#000000;stroke-width:3;stroke-miterlimit:4;stroke-opacity:1;stroke-dasharray:none;stroke-dashoffset:0"
       id="path2989-1"
       sodipodi:cx="325"
       sodipodi:cy="329.09448"
       sodipodi:rx="25"
       sodipodi:ry="25"
       d="m 350,329.09448 c 0,13.80712 -11.19288,25 -25,25 -13.80712,0 -25,-11.19288 -25,-25 0,-13.80712 11.19288,-25 25,-25 13.80712,0 25,11.19288 25,25 z"
       transform="matrix(1.2,0,0,1.2,-190,237.4488)" />
    <path
       style="fill:#ffffff;fill-opacity:1;stroke:#000000;stroke-width:4;stroke-linecap:butt;stroke-linejoin:miter;stroke-miterlimit:4;stroke-opacity:1;stroke-dasharray:none"
       d="m 200,612.36218 0,40"
       id="path3759-7"
       inkscape:connector-curvature="0" />
    <path
       style="fill:#ffffff;fill-opacity:1;stroke:#000000;stroke-width:4;stroke-linecap:butt;stroke-linejoin:miter;stroke-miterlimit:4;stroke-opacity:1;stroke-dasharray:none"
       d="m 180,632.36218 40,0"
       id="path3761-4"
       inkscape:connector-curvature="0" />
    <path
       sodipodi:type="arc"
       style="fill:#ffffff;fill-opacity:1;stroke:#000000;stroke-width:3;stroke-miterlimit:4;stroke-opacity:1;stroke-dasharray:none;stroke-dashoffset:0"
       id="path2989-0"
       sodipodi:cx="325"
       sodipodi:cy="329.09448"
       sodipodi:rx="25"
       sodipodi:ry="25"
       d="m 350,329.09448 c 0,13.80712 -11.19288,25 -25,25 -13.80712,0 -25,-11.19288 -25,-25 0,-13.80712 11.19288,-25 25,-25 13.80712,0 25,11.19288 25,25 z"
       transform="matrix(1.2,0,0,1.2,-110,237.4488)" />
    <path
       style="fill:#ffffff;fill-opacity:1;stroke:#000000;stroke-width:4;stroke-linecap:butt;stroke-linejoin:miter;stroke-miterlimit:4;stroke-opacity:1;stroke-dasharray:none"
       d="m 280,612.36218 0,40"
       id="path3759-9"
       inkscape:connector-curvature="0" />
    <path
       style="fill:#ffffff;fill-opacity:1;stroke:#000000;stroke-width:4;stroke-linecap:butt;stroke-linejoin:miter;stroke-miterlimit:4;stroke-opacity:1;stroke-dasharray:none"
       d="m 260,632.36218 40,0"
       id="path3761-48"
       inkscape:connector-curvature="0" />
    <path
       sodipodi:type="arc"
       style="fill:#ffffff;fill-opacity:1;stroke:#000000;stroke-width:3;stroke-miterlimit:4;stroke-opacity:1;stroke-dasharray:none;stroke-dashoffset:0"
       id="path2989-1-8"
       sodipodi:cx="325"
       sodipodi:cy="329.09448"
       sodipodi:rx="25"
       sodipodi:ry="25"
       d="m 350,329.09448 c 0,13.80712 -11.19288,25 -25,25 -13.80712,0 -25,-11.19288 -25,-25 0,-13.80712 11.19288,-25 25,-25 13.80712,0 25,11.19288 25,25 z"
       transform="matrix(1.2,0,0,1.2,-30,237.4488)" />
    <path
       style="fill:#ffffff;fill-opacity:1;stroke:#000000;stroke-width:4;stroke-linecap:butt;stroke-linejoin:miter;stroke-miterlimit:4;stroke-opacity:1;stroke-dasharray:none"
       d="m 360,612.36218 0,40"
       id="path3759-7-2"
       inkscape:connector-curvature="0" />
    <path
       style="fill:#ffffff;fill-opacity:1;stroke:#000000;stroke-width:4;stroke-linecap:butt;stroke-linejoin:miter;stroke-miterlimit:4;stroke-opacity:1;stroke-dasharray:none"
       d="m 340,632.36218 40,0"
       id="path3761-4-4"
       inkscape:connector-curvature="0" />
    <path
       sodipodi:type="arc"
       style="fill:#ffffff;fill-opacity:1;stroke:#000000;stroke-width:3;stroke-miterlimit:4;stroke-opacity:1;stroke-dasharray:none;stroke-dashoffset:0"
       id="path2989-0-5"
       sodipodi:cx="325"
       sodipodi:cy="329.09448"
       sodipodi:rx="25"
       sodipodi:ry="25"
       d="m 350,329.09448 c 0,13.80712 -11.19288,25 -25,25 -13.80712,0 -25,-11.19288 -25,-25 0,-13.80712 11.19288,-25 25,-25 13.80712,0 25,11.19288 25,25 z"
       transform="matrix(1.2,0,0,1.2,50,237.4488)" />
    <path
       style="fill:#ffffff;fill-opacity:1;stroke:#000000;stroke-width:4;stroke-linecap:butt;stroke-linejoin:miter;stroke-miterlimit:4;stroke-opacity:1;stroke-dasharray:none"
       d="m 440,612.36218 0,40"
       id="path3759-9-5"
       inkscape:connector-curvature="0" />
    <path
       style="fill:#ffffff;fill-opacity:1;stroke:#000000;stroke-width:4;stroke-linecap:butt;stroke-linejoin:miter;stroke-miterlimit:4;stroke-opacity:1;stroke-dasharray:none"
       d="m 420,632.36218 40,0"
       id="path3761-48-1"
       inkscape:connector-curvature="0" />
    <path
       sodipodi:type="arc"
       style="fill:#ffffff;fill-opacity:1;stroke:#000000;stroke-width:3;stroke-miterlimit:4;stroke-opacity:1;stroke-dasharray:none;stroke-dashoffset:0"
       id="path2989-1-8-7"
       sodipodi:cx="325"
       sodipodi:cy="329.09448"
       sodipodi:rx="25"
       sodipodi:ry="25"
       d="m 350,329.09448 c 0,13.80712 -11.19288,25 -25,25 -13.80712,0 -25,-11.19288 -25,-25 0,-13.80712 11.19288,-25 25,-25 13.80712,0 25,11.19288 25,25 z"
       transform="matrix(1.2,0,0,1.2,130,237.4488)" />
    <path
       style="fill:#ffffff;fill-opacity:1;stroke:#000000;stroke-width:4;stroke-linecap:butt;stroke-linejoin:miter;stroke-miterlimit:4;stroke-opacity:1;stroke-dasharray:none"
       d="m 520,612.36218 0,40"
       id="path3759-7-2-1"
       inkscape:connector-curvature="0" />
    <path
       style="fill:#ffffff;fill-opacity:1;stroke:#000000;stroke-width:4;stroke-linecap:butt;stroke-linejoin:miter;stroke-miterlimit:4;stroke-opacity:1;stroke-dasharray:none"
       d="m 500,632.36218 40,0"
       id="path3761-4-4-1"
       inkscape:connector-curvature="0" />
    <path
       sodipodi:type="arc"
       style="fill:#ffffff;fill-opacity:1;stroke:#000000;stroke-width:3;stroke-miterlimit:4;stroke-opacity:1;stroke-dasharray:none;stroke-dashoffset:0"
       id="path2989-0-5-2"
       sodipodi:cx="325"
       sodipodi:cy="329.09448"
       sodipodi:rx="25"
       sodipodi:ry="25"
       d="m 350,329.09448 c 0,13.80712 -11.19288,25 -25,25 -13.80712,0 -25,-11.19288 -25,-25 0,-13.80712 11.19288,-25 25,-25 13.80712,0 25,11.19288 25,25 z"
       transform="matrix(1.2,0,0,1.2,210,237.4488)" />
    <path
       style="fill:#ffffff;fill-opacity:1;stroke:#000000;stroke-width:4;stroke-linecap:butt;stroke-linejoin:miter;stroke-miterlimit:4;stroke-opacity:1;stroke-dasharray:none"
       d="m 600,612.36218 0,40"
       id="path3759-9-5-7"
       inkscape:connector-curvature="0" />
    <path
       style="fill:#ffffff;fill-opacity:1;stroke:#000000;stroke-width:4;stroke-linecap:butt;stroke-linejoin:miter;stroke-miterlimit:4;stroke-opacity:1;stroke-dasharray:none"
       d="m 580,632.36218 40,0"
       id="path3761-48-1-9"
       inkscape:connector-curvature="0" />
    <path
       sodipodi:type="arc"
       style="fill:#ffffff;fill-opacity:1;stroke:#000000;stroke-width:3;stroke-miterlimit:4;stroke-opacity:1;stroke-dasharray:none;stroke-dashoffset:0"
       id="path2989-1-8-7-5"
       sodipodi:cx="325"
       sodipodi:cy="329.09448"
       sodipodi:rx="25"
       sodipodi:ry="25"
       d="m 350,329.09448 c 0,13.80712 -11.19288,25 -25,25 -13.80712,0 -25,-11.19288 -25,-25 0,-13.80712 11.19288,-25 25,-25 13.80712,0 25,11.19288 25,25 z"
       transform="matrix(1.2,0,0,1.2,290,237.4488)" />
    <path
       style="fill:#ffffff;fill-opacity:1;stroke:#000000;stroke-width:4;stroke-linecap:butt;stroke-linejoin:miter;stroke-miterlimit:4;stroke-opacity:1;stroke-dasharray:none"
       d="m 680,612.36218 0,40"
       id="path3759-7-2-1-4"
       inkscape:connector-curvature="0" />
    <path
       style="fill:#ffffff;fill-opacity:1;stroke:#000000;stroke-width:4;stroke-linecap:butt;stroke-linejoin:miter;stroke-miterlimit:4;stroke-opacity:1;stroke-dasharray:none"
       d="m 660,632.36218 40,0"
       id="path3761-4-4-1-3"
       inkscape:connector-curvature="0" />
    <path
       sodipodi:type="arc"
       style="fill:#ffffff;fill-opacity:1;stroke:#000000;stroke-width:3;stroke-miterlimit:4;stroke-opacity:1;stroke-dasharray:none;stroke-dashoffset:0"
       id="path2989-0-5-1"
       sodipodi:cx="325"
       sodipodi:cy="329.09448"
       sodipodi:rx="25"
       sodipodi:ry="25"
       d="m 350,329.09448 c 0,13.80712 -11.19288,25 -25,25 -13.80712,0 -25,-11.19288 -25,-25 0,-13.80712 11.19288,-25 25,-25 13.80712,0 25,11.19288 25,25 z"
       transform="matrix(1.2,0,0,1.2,370,237.4488)" />
    <path
       style="fill:#ffffff;fill-opacity:1;stroke:#000000;stroke-width:4;stroke-linecap:butt;stroke-linejoin:miter;stroke-miterlimit:4;stroke-opacity:1;stroke-dasharray:none"
       d="m 760,612.36218 0,40"
       id="path3759-9-5-2"
       inkscape:connector-curvature="0" />
    <path
       style="fill:#ffffff;fill-opacity:1;stroke:#000000;stroke-width:4;stroke-linecap:butt;stroke-linejoin:miter;stroke-miterlimit:4;stroke-opacity:1;stroke-dasharray:none"
       d="m 740,632.36218 40,0"
       id="path3761-48-1-3"
       inkscape:connector-curvature="0" />
    <path
       sodipodi:type="arc"
       style="fill:#ffffff;fill-opacity:1;stroke:#000000;stroke-width:3;stroke-miterlimit:4;stroke-opacity:1;stroke-dasharray:none;stroke-dashoffset:0"
       id="path2989-1-8-7-3"
       sodipodi:cx="325"
       sodipodi:cy="329.09448"
       sodipodi:rx="25"
       sodipodi:ry="25"
       d="m 350,329.09448 c 0,13.80712 -11.19288,25 -25,25 -13.80712,0 -25,-11.19288 -25,-25 0,-13.80712 11.19288,-25 25,-25 13.80712,0 25,11.19288 25,25 z"
       transform="matrix(1.2,0,0,1.2,450,237.4488)" />
    <path
       style="fill:#ffffff;fill-opacity:1;stroke:#000000;stroke-width:4;stroke-linecap:butt;stroke-linejoin:miter;stroke-miterlimit:4;stroke-opacity:1;stroke-dasharray:none"
       d="m 840,612.36218 0,40"
       id="path3759-7-2-1-41"
       inkscape:connector-curvature="0" />
    <path
       style="fill:#ffffff;fill-opacity:1;stroke:#000000;stroke-width:4;stroke-linecap:butt;stroke-linejoin:miter;stroke-miterlimit:4;stroke-opacity:1;stroke-dasharray:none"
       d="m 820,632.36218 40,0"
       id="path3761-4-4-1-1"
       inkscape:connector-curvature="0" />
    <path
       sodipodi:type="arc"
       style="fill:#000000;fill-opacity:1;stroke:#000000;stroke-width:4;stroke-miterlimit:4;stroke-opacity:1;stroke-dasharray:none;stroke-dashoffset:0"
       id="path3974"
       sodipodi:cx="250"
       sodipodi:cy="244.09448"
       sodipodi:rx="10"
       sodipodi:ry="10"
       d="m 260,244.09448 c 0,5.52285 -4.47715,10 -10,10 -5.52285,0 -10,-4.47715 -10,-10 0,-5.52285 4.47715,-10 10,-10 5.52285,0 10,4.47715 10,10 z"
       transform="translate(-130,318.2677)" />
    <text
       xml:space="preserve"
       style="font-size:40px;font-style:normal;font-weight:normal;line-height:125%;letter-spacing:0px;word-spacing:0px;fill:#000000;fill-opacity:1;stroke:none;font-family:Sans"
       x="110"
       y="542.36218"
       id="text3994"
       sodipodi:linespacing="125%"><tspan
         sodipodi:role="line"
         id="tspan3996"
         x="110"
         y="542.36218"
         style="font-size:24px">e-</tspan></text>
    <path
       style="fill:none;stroke:#000000;stroke-width:4;stroke-linecap:butt;stroke-linejoin:miter;stroke-miterlimit:4;stroke-opacity:1;stroke-dasharray:none"
       d="m 130,254.09448 30,0"
       id="path3998"
       inkscape:connector-curvature="0"
       transform="translate(0,308.2677)" />
    <path
       style="fill:#000000;fill-opacity:1;stroke:#000000;stroke-width:1px;stroke-linecap:butt;stroke-linejoin:miter;stroke-opacity:1"
       d="m 155,249.09448 15,5 -15,5 z"
       id="path4000"
       inkscape:connector-curvature="0"
       transform="translate(0,308.2677)" />
    <path
       sodipodi:type="arc"
       style="fill:#000000;fill-opacity:1;stroke:#000000;stroke-width:4;stroke-miterlimit:4;stroke-opacity:1;stroke-dasharray:none;stroke-dashoffset:0"
       id="path3974-8"
       sodipodi:cx="250"
       sodipodi:cy="244.09448"
       sodipodi:rx="10"
       sodipodi:ry="10"
       d="m 260,244.09448 c 0,5.52285 -4.47715,10 -10,10 -5.52285,0 -10,-4.47715 -10,-10 0,-5.52285 4.47715,-10 10,-10 5.52285,0 10,4.47715 10,10 z"
       transform="translate(-50,318.2677)" />
    <text
       xml:space="preserve"
       style="font-size:40px;font-style:normal;font-weight:normal;line-height:125%;letter-spacing:0px;word-spacing:0px;fill:#000000;fill-opacity:1;stroke:none;font-family:Sans"
       x="190"
       y="542.36218"
       id="text3994-7"
       sodipodi:linespacing="125%"><tspan
         sodipodi:role="line"
         id="tspan3996-4"
         x="190"
         y="542.36218"
         style="font-size:24px">e-</tspan></text>
    <path
       style="fill:none;stroke:#000000;stroke-width:4;stroke-linecap:butt;stroke-linejoin:miter;stroke-miterlimit:4;stroke-opacity:1;stroke-dasharray:none"
       d="m 210,562.36218 30,0"
       id="path3998-2"
       inkscape:connector-curvature="0" />
    <path
       style="fill:#000000;fill-opacity:1;stroke:#000000;stroke-width:1px;stroke-linecap:butt;stroke-linejoin:miter;stroke-opacity:1"
       d="m 235,557.36218 15,5 -15,5 z"
       id="path4000-7"
       inkscape:connector-curvature="0" />
    <path
       sodipodi:type="arc"
       style="fill:#000000;fill-opacity:1;stroke:#000000;stroke-width:4;stroke-miterlimit:4;stroke-opacity:1;stroke-dasharray:none;stroke-dashoffset:0"
       id="path3974-7"
       sodipodi:cx="250"
       sodipodi:cy="244.09448"
       sodipodi:rx="10"
       sodipodi:ry="10"
       d="m 260,244.09448 c 0,5.52285 -4.47715,10 -10,10 -5.52285,0 -10,-4.47715 -10,-10 0,-5.52285 4.47715,-10 10,-10 5.52285,0 10,4.47715 10,10 z"
       transform="translate(30,318.2677)" />
    <text
       xml:space="preserve"
       style="font-size:40px;font-style:normal;font-weight:normal;line-height:125%;letter-spacing:0px;word-spacing:0px;fill:#000000;fill-opacity:1;stroke:none;font-family:Sans"
       x="270"
       y="542.36218"
       id="text3994-9"
       sodipodi:linespacing="125%"><tspan
         sodipodi:role="line"
         id="tspan3996-3"
         x="270"
         y="542.36218"
         style="font-size:24px">e-</tspan></text>
    <path
       style="fill:none;stroke:#000000;stroke-width:4;stroke-linecap:butt;stroke-linejoin:miter;stroke-miterlimit:4;stroke-opacity:1;stroke-dasharray:none"
       d="m 290,562.36218 30,0"
       id="path3998-1"
       inkscape:connector-curvature="0" />
    <path
       style="fill:#000000;fill-opacity:1;stroke:#000000;stroke-width:1px;stroke-linecap:butt;stroke-linejoin:miter;stroke-opacity:1"
       d="m 315,557.36218 15,5 -15,5 z"
       id="path4000-9"
       inkscape:connector-curvature="0" />
    <path
       sodipodi:type="arc"
       style="fill:#000000;fill-opacity:1;stroke:#000000;stroke-width:4;stroke-miterlimit:4;stroke-opacity:1;stroke-dasharray:none;stroke-dashoffset:0"
       id="path3974-8-8"
       sodipodi:cx="250"
       sodipodi:cy="244.09448"
       sodipodi:rx="10"
       sodipodi:ry="10"
       d="m 260,244.09448 c 0,5.52285 -4.47715,10 -10,10 -5.52285,0 -10,-4.47715 -10,-10 0,-5.52285 4.47715,-10 10,-10 5.52285,0 10,4.47715 10,10 z"
       transform="translate(110,318.2677)" />
    <text
       xml:space="preserve"
       style="font-size:40px;font-style:normal;font-weight:normal;line-height:125%;letter-spacing:0px;word-spacing:0px;fill:#000000;fill-opacity:1;stroke:none;font-family:Sans"
       x="350"
       y="542.36218"
       id="text3994-7-6"
       sodipodi:linespacing="125%"><tspan
         sodipodi:role="line"
         id="tspan3996-4-5"
         x="350"
         y="542.36218"
         style="font-size:24px">e-</tspan></text>
    <path
       style="fill:none;stroke:#000000;stroke-width:4;stroke-linecap:butt;stroke-linejoin:miter;stroke-miterlimit:4;stroke-opacity:1;stroke-dasharray:none"
       d="m 370,562.36218 30,0"
       id="path3998-2-0"
       inkscape:connector-curvature="0" />
    <path
       style="fill:#000000;fill-opacity:1;stroke:#000000;stroke-width:1px;stroke-linecap:butt;stroke-linejoin:miter;stroke-opacity:1"
       d="m 395,557.36218 15,5 -15,5 z"
       id="path4000-7-2"
       inkscape:connector-curvature="0" />
    <path
       sodipodi:type="arc"
       style="fill:#000000;fill-opacity:1;stroke:#000000;stroke-width:4;stroke-miterlimit:4;stroke-opacity:1;stroke-dasharray:none;stroke-dashoffset:0"
       id="path3974-86"
       sodipodi:cx="250"
       sodipodi:cy="244.09448"
       sodipodi:rx="10"
       sodipodi:ry="10"
       d="m 260,244.09448 c 0,5.52285 -4.47715,10 -10,10 -5.52285,0 -10,-4.47715 -10,-10 0,-5.52285 4.47715,-10 10,-10 5.52285,0 10,4.47715 10,10 z"
       transform="translate(190,318.2677)" />
    <text
       xml:space="preserve"
       style="font-size:40px;font-style:normal;font-weight:normal;line-height:125%;letter-spacing:0px;word-spacing:0px;fill:#000000;fill-opacity:1;stroke:none;font-family:Sans"
       x="430"
       y="542.36218"
       id="text3994-0"
       sodipodi:linespacing="125%"><tspan
         sodipodi:role="line"
         id="tspan3996-2"
         x="430"
         y="542.36218"
         style="font-size:24px">e-</tspan></text>
    <path
       style="fill:none;stroke:#000000;stroke-width:4;stroke-linecap:butt;stroke-linejoin:miter;stroke-miterlimit:4;stroke-opacity:1;stroke-dasharray:none"
       d="m 450,562.36218 30,0"
       id="path3998-4"
       inkscape:connector-curvature="0" />
    <path
       style="fill:#000000;fill-opacity:1;stroke:#000000;stroke-width:1px;stroke-linecap:butt;stroke-linejoin:miter;stroke-opacity:1"
       d="m 475,557.36218 15,5 -15,5 z"
       id="path4000-8"
       inkscape:connector-curvature="0" />
    <path
       sodipodi:type="arc"
       style="fill:#000000;fill-opacity:1;stroke:#000000;stroke-width:4;stroke-miterlimit:4;stroke-opacity:1;stroke-dasharray:none;stroke-dashoffset:0"
       id="path3974-8-6"
       sodipodi:cx="250"
       sodipodi:cy="244.09448"
       sodipodi:rx="10"
       sodipodi:ry="10"
       d="m 260,244.09448 c 0,5.52285 -4.47715,10 -10,10 -5.52285,0 -10,-4.47715 -10,-10 0,-5.52285 4.47715,-10 10,-10 5.52285,0 10,4.47715 10,10 z"
       transform="translate(270,318.2677)" />
    <text
       xml:space="preserve"
       style="font-size:40px;font-style:normal;font-weight:normal;line-height:125%;letter-spacing:0px;word-spacing:0px;fill:#000000;fill-opacity:1;stroke:none;font-family:Sans"
       x="510"
       y="542.36218"
       id="text3994-7-5"
       sodipodi:linespacing="125%"><tspan
         sodipodi:role="line"
         id="tspan3996-4-0"
         x="510"
         y="542.36218"
         style="font-size:24px">e-</tspan></text>
    <path
       style="fill:none;stroke:#000000;stroke-width:4;stroke-linecap:butt;stroke-linejoin:miter;stroke-miterlimit:4;stroke-opacity:1;stroke-dasharray:none"
       d="m 530,562.36218 30,0"
       id="path3998-2-9"
       inkscape:connector-curvature="0" />
    <path
       style="fill:#000000;fill-opacity:1;stroke:#000000;stroke-width:1px;stroke-linecap:butt;stroke-linejoin:miter;stroke-opacity:1"
       d="m 555,557.36218 15,5 -15,5 z"
       id="path4000-7-0"
       inkscape:connector-curvature="0" />
    <path
       sodipodi:type="arc"
       style="fill:#000000;fill-opacity:1;stroke:#000000;stroke-width:4;stroke-miterlimit:4;stroke-opacity:1;stroke-dasharray:none;stroke-dashoffset:0"
       id="path3974-7-0"
       sodipodi:cx="250"
       sodipodi:cy="244.09448"
       sodipodi:rx="10"
       sodipodi:ry="10"
       d="m 260,244.09448 c 0,5.52285 -4.47715,10 -10,10 -5.52285,0 -10,-4.47715 -10,-10 0,-5.52285 4.47715,-10 10,-10 5.52285,0 10,4.47715 10,10 z"
       transform="translate(350,318.2677)" />
    <text
       xml:space="preserve"
       style="font-size:40px;font-style:normal;font-weight:normal;line-height:125%;letter-spacing:0px;word-spacing:0px;fill:#000000;fill-opacity:1;stroke:none;font-family:Sans"
       x="590"
       y="542.36218"
       id="text3994-9-6"
       sodipodi:linespacing="125%"><tspan
         sodipodi:role="line"
         id="tspan3996-3-1"
         x="590"
         y="542.36218"
         style="font-size:24px">e-</tspan></text>
    <path
       style="fill:none;stroke:#000000;stroke-width:4;stroke-linecap:butt;stroke-linejoin:miter;stroke-miterlimit:4;stroke-opacity:1;stroke-dasharray:none"
       d="m 610,562.36218 30,0"
       id="path3998-1-3"
       inkscape:connector-curvature="0" />
    <path
       style="fill:#000000;fill-opacity:1;stroke:#000000;stroke-width:1px;stroke-linecap:butt;stroke-linejoin:miter;stroke-opacity:1"
       d="m 635,557.36218 15,5 -15,5 z"
       id="path4000-9-8"
       inkscape:connector-curvature="0" />
    <path
       sodipodi:type="arc"
       style="fill:#000000;fill-opacity:1;stroke:#000000;stroke-width:4;stroke-miterlimit:4;stroke-opacity:1;stroke-dasharray:none;stroke-dashoffset:0"
       id="path3974-8-8-9"
       sodipodi:cx="250"
       sodipodi:cy="244.09448"
       sodipodi:rx="10"
       sodipodi:ry="10"
       d="m 260,244.09448 c 0,5.52285 -4.47715,10 -10,10 -5.52285,0 -10,-4.47715 -10,-10 0,-5.52285 4.47715,-10 10,-10 5.52285,0 10,4.47715 10,10 z"
       transform="translate(430,318.2677)" />
    <text
       xml:space="preserve"
       style="font-size:40px;font-style:normal;font-weight:normal;line-height:125%;letter-spacing:0px;word-spacing:0px;fill:#000000;fill-opacity:1;stroke:none;font-family:Sans"
       x="670"
       y="542.36218"
       id="text3994-7-6-3"
       sodipodi:linespacing="125%"><tspan
         sodipodi:role="line"
         id="tspan3996-4-5-4"
         x="670"
         y="542.36218"
         style="font-size:24px">e-</tspan></text>
    <path
       style="fill:none;stroke:#000000;stroke-width:4;stroke-linecap:butt;stroke-linejoin:miter;stroke-miterlimit:4;stroke-opacity:1;stroke-dasharray:none"
       d="m 690,562.36218 30,0"
       id="path3998-2-0-4"
       inkscape:connector-curvature="0" />
    <path
       style="fill:#000000;fill-opacity:1;stroke:#000000;stroke-width:1px;stroke-linecap:butt;stroke-linejoin:miter;stroke-opacity:1"
       d="m 715,557.36218 15,5 -15,5 z"
       id="path4000-7-2-6"
       inkscape:connector-curvature="0" />
    <path
       sodipodi:type="arc"
       style="fill:#000000;fill-opacity:1;stroke:#000000;stroke-width:4;stroke-miterlimit:4;stroke-opacity:1;stroke-dasharray:none;stroke-dashoffset:0"
       id="path3974-7-0-0"
       sodipodi:cx="250"
       sodipodi:cy="244.09448"
       sodipodi:rx="10"
       sodipodi:ry="10"
       d="m 260,244.09448 c 0,5.52285 -4.47715,10 -10,10 -5.52285,0 -10,-4.47715 -10,-10 0,-5.52285 4.47715,-10 10,-10 5.52285,0 10,4.47715 10,10 z"
       transform="translate(510,318.2677)" />
    <text
       xml:space="preserve"
       style="font-size:40px;font-style:normal;font-weight:normal;line-height:125%;letter-spacing:0px;word-spacing:0px;fill:#000000;fill-opacity:1;stroke:none;font-family:Sans"
       x="750"
       y="542.36218"
       id="text3994-9-6-6"
       sodipodi:linespacing="125%"><tspan
         sodipodi:role="line"
         id="tspan3996-3-1-6"
         x="750"
         y="542.36218"
         style="font-size:24px">e-</tspan></text>
    <path
       style="fill:none;stroke:#000000;stroke-width:4;stroke-linecap:butt;stroke-linejoin:miter;stroke-miterlimit:4;stroke-opacity:1;stroke-dasharray:none"
       d="m 770,562.36218 30,0"
       id="path3998-1-3-1"
       inkscape:connector-curvature="0" />
    <path
       style="fill:#000000;fill-opacity:1;stroke:#000000;stroke-width:1px;stroke-linecap:butt;stroke-linejoin:miter;stroke-opacity:1"
       d="m 795,557.36218 15,5 -15,5 z"
       id="path4000-9-8-8"
       inkscape:connector-curvature="0" />
    <path
       sodipodi:type="arc"
       style="fill:#000000;fill-opacity:1;stroke:#000000;stroke-width:4;stroke-miterlimit:4;stroke-opacity:1;stroke-dasharray:none;stroke-dashoffset:0"
       id="path3974-8-8-9-4"
       sodipodi:cx="250"
       sodipodi:cy="244.09448"
       sodipodi:rx="10"
       sodipodi:ry="10"
       d="m 260,244.09448 c 0,5.52285 -4.47715,10 -10,10 -5.52285,0 -10,-4.47715 -10,-10 0,-5.52285 4.47715,-10 10,-10 5.52285,0 10,4.47715 10,10 z"
       transform="translate(590,318.2677)" />
    <text
       xml:space="preserve"
       style="font-size:40px;font-style:normal;font-weight:normal;line-height:125%;letter-spacing:0px;word-spacing:0px;fill:#000000;fill-opacity:1;stroke:none;font-family:Sans"
       x="830"
       y="542.36218"
       id="text3994-7-6-3-9"
       sodipodi:linespacing="125%"><tspan
         sodipodi:role="line"
         id="tspan3996-4-5-4-6"
         x="830"
         y="542.36218"
         style="font-size:24px">e-</tspan></text>
    <path
       style="fill:none;stroke:#000000;stroke-width:4;stroke-linecap:butt;stroke-linejoin:miter;stroke-miterlimit:4;stroke-opacity:1;stroke-dasharray:none"
       d="m 850,562.36218 30,0"
       id="path3998-2-0-4-3"
       inkscape:connector-curvature="0" />
    <path
       style="fill:#000000;fill-opacity:1;stroke:#000000;stroke-width:1px;stroke-linecap:butt;stroke-linejoin:miter;stroke-opacity:1"
       d="m 875,557.36218 15,5 -15,5 z"
       id="path4000-7-2-6-7"
       inkscape:connector-curvature="0" />
    <text
       xml:space="preserve"
       style="font-size:40px;font-style:italic;font-variant:normal;font-weight:normal;font-stretch:normal;line-height:125%;letter-spacing:0px;word-spacing:0px;fill:#000000;fill-opacity:1;stroke:none;font-family:Cambria;-inkscape-font-specification:Cambria Italic"
       x="870"
       y="552.36218"
       id="text4201"
       sodipodi:linespacing="125%"><tspan
         sodipodi:role="line"
         id="tspan4203"
         x="870"
         y="552.36218"
         style="font-size:48px;font-style:italic;font-variant:normal;font-weight:normal;font-stretch:normal;font-family:Cambria;-inkscape-font-specification:Cambria Italic">v'</tspan></text>
    <path
       style="fill:none;stroke:#000000;stroke-width:3.16227698;stroke-linecap:butt;stroke-linejoin:miter;stroke-miterlimit:4;stroke-opacity:1;stroke-dasharray:none"
       d="m 871.25,517.36218 18.75,0"
       id="path3998-2-0-4-3-8"
       inkscape:connector-curvature="0" />
    <path
       style="fill:#000000;fill-opacity:1;stroke:#000000;stroke-width:0.79056925px;stroke-linecap:butt;stroke-linejoin:miter;stroke-opacity:1"
       d="m 890,512.36218 9.375,5 -9.375,5 z"
       id="path4000-7-2-6-7-8"
       inkscape:connector-curvature="0" />
    <path
       style="fill:none;stroke:#000000;stroke-width:6.53197289;stroke-linecap:butt;stroke-linejoin:miter;stroke-miterlimit:4;stroke-opacity:1;stroke-dasharray:none"
       d="m 490,872.36218 80,0"
       id="path3998-2-0-4-2"
       inkscape:connector-curvature="0" />
    <path
       style="fill:#000000;fill-opacity:1;stroke:#000000;stroke-width:2.58198905px;stroke-linecap:butt;stroke-linejoin:miter;stroke-opacity:1"
       d="m 565,860.36218 40,12.5 -40,12.5 z"
       id="path4000-9-8-9"
       inkscape:connector-curvature="0" />
    <path
       sodipodi:type="arc"
       style="fill:#ff0000;fill-opacity:1;stroke:#000000;stroke-width:4;stroke-miterlimit:4;stroke-opacity:1;stroke-dasharray:none;stroke-dashoffset:0"
       id="path3972"
       sodipodi:cx="440"
       sodipodi:cy="574.09448"
       sodipodi:rx="20"
       sodipodi:ry="20"
       d="m 460,574.09448 c 0,11.0457 -8.95431,20 -20,20 -11.04569,0 -20,-8.9543 -20,-20 0,-11.04569 8.95431,-20 20,-20 11.04569,0 20,8.95431 20,20 z"
       transform="translate(40,298.2677)" />
    <text
       xml:space="preserve"
       style="font-size:40px;font-style:italic;font-variant:normal;font-weight:normal;font-stretch:normal;line-height:125%;letter-spacing:0px;word-spacing:0px;fill:#000000;fill-opacity:1;stroke:none;font-family:Cambria;-inkscape-font-specification:Cambria Italic"
       x="520"
       y="932.36218"
       id="text4201-1"
       sodipodi:linespacing="125%"><tspan
         sodipodi:role="line"
         id="tspan4203-3"
         x="520"
         y="932.36218"
         style="font-size:48px;font-style:italic;font-variant:normal;font-weight:normal;font-stretch:normal;font-family:Cambria;-inkscape-font-specification:Cambria Italic">v</tspan></text>
    <path
       style="fill:none;stroke:#000000;stroke-width:3.16227698;stroke-linecap:butt;stroke-linejoin:miter;stroke-miterlimit:4;stroke-opacity:1;stroke-dasharray:none"
       d="m 521.25,897.36218 18.75,0"
       id="path3998-2-0-4-3-8-5"
       inkscape:connector-curvature="0" />
    <path
       style="fill:#000000;fill-opacity:1;stroke:#000000;stroke-width:0.79056925px;stroke-linecap:butt;stroke-linejoin:miter;stroke-opacity:1"
       d="m 540,892.36218 9.375,5 -9.375,5 z"
       id="path4000-7-2-6-7-8-9"
       inkscape:connector-curvature="0" />
    <path
       style="fill:none;stroke:#000000;stroke-width:4;stroke-linecap:butt;stroke-linejoin:miter;stroke-miterlimit:4;stroke-opacity:1;stroke-dasharray:16, 16;stroke-dashoffset:0"
       d="m 480,324.09448 0,240"
       id="path4289"
       inkscape:connector-curvature="0"
       transform="translate(0,308.2677)" />
    <text
       xml:space="preserve"
       style="font-size:40px;font-style:normal;font-weight:normal;line-height:125%;letter-spacing:0px;word-spacing:0px;fill:#000000;fill-opacity:1;stroke:none;font-family:Times New Roman;-inkscape-font-specification:Times New Roman"
       x="500"
       y="792.36218"
       id="text4291"
       sodipodi:linespacing="125%"><tspan
         sodipodi:role="line"
         id="tspan4293"
         x="500"
         y="792.36218"
         style="font-size:48px;font-style:italic;-inkscape-font-specification:'Times New Roman, Italic'">r</tspan></text>
    <path
       style="fill:#000000;fill-opacity:1;stroke:#000000;stroke-width:1.73205018px;stroke-linecap:butt;stroke-linejoin:miter;stroke-opacity:1"
       d="m 935,624.36218 30,7.5 -30,7.5 z"
       id="path4000-9-8-9-8"
       inkscape:connector-curvature="0" />
    <text
       xml:space="preserve"
       style="font-size:40px;font-style:normal;font-weight:normal;line-height:125%;letter-spacing:0px;word-spacing:0px;fill:#000000;fill-opacity:1;stroke:none;font-family:Times New Roman;-inkscape-font-specification:Times New Roman"
       x="935.40125"
       y="354.68069"
       id="text4317"
       sodipodi:linespacing="125%"
       transform="translate(0,308.2677)"><tspan
         sodipodi:role="line"
         id="tspan4319"
         x="935.40125"
         y="354.68069"
         style="font-style:italic;-inkscape-font-specification:'Times New Roman, Italic'">x</tspan></text>
    <path
       style="fill:none;stroke:#000000;stroke-width:3;stroke-linecap:butt;stroke-linejoin:miter;stroke-miterlimit:4;stroke-opacity:1;stroke-dasharray:none"
       d="m 120,802.36218 80,0"
       id="path4323"
       inkscape:connector-curvature="0" />
    <path
       style="fill:none;stroke:#000000;stroke-width:3;stroke-linecap:butt;stroke-linejoin:miter;stroke-miterlimit:4;stroke-opacity:1;stroke-dasharray:none"
       d="m 200,787.36218 0,30"
       id="path4325"
       inkscape:connector-curvature="0" />
    <path
       style="fill:none;stroke:#000000;stroke-width:3;stroke-linecap:butt;stroke-linejoin:miter;stroke-miterlimit:4;stroke-opacity:1;stroke-dasharray:none"
       d="m 120,787.36218 0,30"
       id="path4327"
       inkscape:connector-curvature="0" />
    <text
       xml:space="preserve"
       style="font-size:40px;font-style:normal;font-weight:normal;line-height:125%;letter-spacing:0px;word-spacing:0px;fill:#000000;fill-opacity:1;stroke:none;font-family:Times New Roman;-inkscape-font-specification:Times New Roman"
       x="145"
       y="842.36218"
       id="text4329"
       sodipodi:linespacing="125%"><tspan
         sodipodi:role="line"
         id="tspan4331"
         x="145"
         y="842.36218"
         style="font-size:48px;font-style:italic;-inkscape-font-specification:'Times New Roman, Italic'">a</tspan></text>
    <path
       sodipodi:type="arc"
       style="fill:none;stroke:#000000;stroke-width:3.84307575;stroke-miterlimit:4;stroke-opacity:1;stroke-dasharray:3.84307575, 7.6861515;stroke-dashoffset:0"
       id="path4333"
       sodipodi:cx="70"
       sodipodi:cy="314.09448"
       sodipodi:rx="40"
       sodipodi:ry="120"
       d="m 110,314.09448 c 0,66.27417 -17.90861,120 -40,120 -22.09139,0 -40,-53.72583 -40,-120 0,-66.27417 17.90861,-120 40,-120 22.09139,0 40,53.72583 40,120 z"
       transform="matrix(1,0,0,1.0833333,-30,282.09316)" />
    <path
       transform="matrix(1,0,0,1.0833333,890,282.09316)"
       sodipodi:type="arc"
       style="fill:none;stroke:#000000;stroke-width:3.84307575;stroke-miterlimit:4;stroke-opacity:1;stroke-dasharray:3.84307575, 7.6861515;stroke-dashoffset:0"
       id="path4333-4"
       sodipodi:cx="70"
       sodipodi:cy="314.09448"
       sodipodi:rx="40"
       sodipodi:ry="120"
       d="m 110,314.09448 c 0,66.27417 -17.90861,120 -40,120 -22.09139,0 -40,-53.72583 -40,-120 0,-66.27417 17.90861,-120 40,-120 22.09139,0 40,53.72583 40,120 z" />
    <path
       style="fill:none;stroke:#000000;stroke-width:4;stroke-linecap:butt;stroke-linejoin:miter;stroke-miterlimit:4;stroke-opacity:1;stroke-dasharray:4, 8;stroke-dashoffset:0"
       d="m 40,184.09448 920,0"
       id="path5869"
       inkscape:connector-curvature="0"
       transform="translate(0,308.2677)" />
    <path
       style="fill:none;stroke:#000000;stroke-width:4;stroke-linecap:butt;stroke-linejoin:miter;stroke-miterlimit:4;stroke-opacity:1;stroke-dasharray:4, 8;stroke-dashoffset:0"
       d="m 40,752.36218 920,0"
       id="path5869-0"
       inkscape:connector-curvature="0" />
    <text
       xml:space="preserve"
       style="font-size:40px;font-style:normal;font-weight:normal;line-height:125%;letter-spacing:0px;word-spacing:0px;fill:#000000;fill-opacity:1;stroke:none;font-family:Times New Roman;-inkscape-font-specification:Times New Roman"
       x="-50"
       y="632.36218"
       id="text5889"
       sodipodi:linespacing="125%"><tspan
         sodipodi:role="line"
         id="tspan5891"
         x="-50"
         y="632.36218"
         style="font-size:48px;font-style:italic;-inkscape-font-specification:'Times New Roman, Italic'">Σ</tspan></text>
    <text
       xml:space="preserve"
       style="font-size:40px;font-style:normal;font-weight:normal;line-height:125%;letter-spacing:0px;word-spacing:0px;fill:#000000;fill-opacity:1;stroke:none;font-family:Times New Roman;-inkscape-font-specification:Times New Roman"
       x="420"
       y="882.36218"
       id="text5893"
       sodipodi:linespacing="125%"><tspan
         sodipodi:role="line"
         id="tspan5895"
         x="420"
         y="882.36218"
         style="font-size:48px;font-style:italic;-inkscape-font-specification:'Times New Roman, Italic'">q</tspan></text>
  </g>
</svg>
